<?xml version="1.0" standalone="no"?>
<!DOCTYPE svg PUBLIC "-//W3C//DTD SVG 20010904//EN"
 "http://www.w3.org/TR/2001/REC-SVG-20010904/DTD/svg10.dtd">
<svg version="1.0" xmlns="http://www.w3.org/2000/svg"
 width="260.000000pt" height="260.000000pt" viewBox="0 0 260.000000 260.000000"
 preserveAspectRatio="xMidYMid meet">
<metadata>
Created by potrace 1.11, written by Peter Selinger 2001-2013
</metadata>
<g transform="translate(0.000000,260.000000) scale(0.100000,-0.100000)"
fill="#000000" stroke="none">
<path d="M423 2303 c-2 -6 -3 -24 -1 -40 3 -28 3 -28 108 -39 117 -12 146 -23
163 -62 26 -62 19 -1713 -8 -1784 -3 -8 -29 -28 -58 -44 -43 -24 -52 -35 -52
-57 l0 -27 735 -2 735 -3 12 180 c7 99 16 211 22 250 6 38 6 74 2 78 -5 5 -24
7 -42 5 -33 -3 -35 -5 -48 -63 -44 -198 -62 -261 -78 -273 -54 -39 -191 -52
-584 -52 l-326 0 -6 137 c-10 198 -8 1505 2 1592 13 105 22 112 163 125 l113
11 0 40 0 39 -424 1 c-313 0 -425 -3 -428 -12z"/>
</g>
</svg>
